<svg xmlns="http://www.w3.org/2000/svg" viewBox="0 0 100 100" fill="none">
  <rect width="100" height="100" rx="22" fill="#6E0F16"/>
  <g transform="translate(0 3)">
    <g stroke="#F8F3EC" stroke-width="3.5" stroke-linecap="round" stroke-linejoin="round" fill="#F8F3EC">
      <path d="M30 34 C22 28 16 30 18 38 C20 44 28 44 33 40 Z"/>
      <path d="M70 34 C78 28 84 30 82 38 C80 44 72 44 67 40 Z"/>
      <ellipse cx="50" cy="42" rx="21" ry="19"/>
      <ellipse cx="50" cy="52" rx="14" ry="10" fill="#F8F3EC"/>
      <path d="M34 60 C30 74 36 86 50 86 C64 86 70 74 66 60 C60 66 40 66 34 60 Z"/>
    </g>
    <g fill="#6E0F16">
      <path d="M42 44 q3 -4 6 0" stroke="#6E0F16" stroke-width="2.5" fill="none" stroke-linecap="round"/>
      <path d="M52 44 q3 -4 6 0" stroke="#6E0F16" stroke-width="2.5" fill="none" stroke-linecap="round"/>
      <circle cx="45" cy="52" r="1.8"/>
      <circle cx="55" cy="52" r="1.8"/>
      <path d="M45 56 q5 5 10 0" stroke="#6E0F16" stroke-width="2.2" fill="none" stroke-linecap="round"/>
    </g>
  </g>
</svg>
